<svg width="31" height="36" viewBox="0 0 31 36" fill="none" xmlns="http://www.w3.org/2000/svg">
<path d="M9.3675 14.64C9.3325 14.64 9.2975 14.64 9.2625 14.605C8.09 13.03 7.7925 10.335 7.705 9.30251C7.705 9.11001 7.4775 8.9875 7.3025 9.09251C3.6275 11.14 0.25 16.005 0.25 20.695C0.25 28.745 5.85 35.5 15.475 35.5C24.4875 35.5 30.7 28.535 30.7 20.695C30.7 10.4225 23.35 3.59751 16.8225 0.517506C16.7844 0.496575 16.7412 0.486977 16.6978 0.489846C16.6545 0.492716 16.6129 0.507933 16.5779 0.533699C16.5429 0.559465 16.5161 0.594704 16.5005 0.635249C16.4849 0.675795 16.4813 0.719954 16.49 0.762506C17.33 6.29251 16.175 12.3125 9.3675 14.64Z" fill="url(#paint0_linear_17_168)"/>
<defs>
<linearGradient id="paint0_linear_17_168" x1="3.16" y1="3.6" x2="24.4" y2="30.6" gradientUnits="userSpaceOnUse">
<stop stop-color="#EEAECA"/>
<stop offset="1" stop-color="#94BBE9"/>
</linearGradient>
</defs>
</svg>
