<svg xmlns="http://www.w3.org/2000/svg" width="24" height="24" viewBox="0 0 24 24" fill="none">
<path d="M15.5854 12.277C15.5488 12.2407 15.5198 12.1976 15.5 12.15C15.4802 12.1025 15.47 12.0515 15.47 12C15.47 11.9485 15.4802 11.8975 15.5 11.85C15.5198 11.8024 15.5488 11.7593 15.5854 11.723L23.314 3.99827C23.5315 3.78078 23.704 3.52259 23.8217 3.23842C23.9394 2.95426 24 2.6497 24 2.34213C24 2.03456 23.9394 1.73 23.8217 1.44584C23.704 1.16168 23.5315 0.903481 23.314 0.685994C23.0965 0.468507 22.8383 0.295988 22.5542 0.178284C22.27 0.0605814 21.9654 0 21.6579 0C21.0367 0 20.441 0.24676 20.0017 0.685994L12.277 8.41073C12.2407 8.4473 12.1976 8.47632 12.15 8.49613C12.1025 8.51593 12.0515 8.52613 12 8.52613C11.9485 8.52613 11.8975 8.51593 11.85 8.49613C11.8024 8.47632 11.7593 8.4473 11.723 8.41073L3.99827 0.685994C3.55903 0.24676 2.9633 -4.62809e-09 2.34213 0C1.72096 4.62809e-09 1.12523 0.24676 0.685994 0.685994C0.24676 1.12523 4.62809e-09 1.72096 0 2.34213C-4.62809e-09 2.9633 0.24676 3.55903 0.685994 3.99827L8.41073 11.723C8.4473 11.7593 8.47632 11.8024 8.49613 11.85C8.51593 11.8975 8.52613 11.9485 8.52613 12C8.52613 12.0515 8.51593 12.1025 8.49613 12.15C8.47632 12.1976 8.4473 12.2407 8.41073 12.277L0.685994 20.0017C0.24676 20.441 0 21.0367 0 21.6579C0 22.279 0.24676 22.8748 0.685994 23.314C1.12523 23.7532 1.72096 24 2.34213 24C2.9633 24 3.55903 23.7532 3.99827 23.314L11.723 15.5893C11.7593 15.5527 11.8024 15.5237 11.85 15.5039C11.8975 15.4841 11.9485 15.4739 12 15.4739C12.0515 15.4739 12.1025 15.4841 12.15 15.5039C12.1976 15.5237 12.2407 15.5527 12.277 15.5893L20.0017 23.314C20.441 23.7532 21.0367 24 21.6579 24C22.279 24 22.8748 23.7532 23.314 23.314C23.7532 22.8748 24 22.279 24 21.6579C24 21.0367 23.7532 20.441 23.314 20.0017L15.5854 12.277Z" fill="#ffffff"/>
</svg>